<svg width="18" height="17" viewBox="0 0 18 17" fill="none" xmlns="http://www.w3.org/2000/svg">
<path d="M6.95001 1.27858L6.95004 1.27856C8.13349 0.367329 10.0149 0.367329 11.1984 1.27856L11.1984 1.27858L15.6236 4.68839L15.6243 4.68894C16.0832 5.04847 16.4414 5.45483 16.6893 5.90213C16.8953 6.27181 16.7205 6.71073 16.3296 6.88637C15.9432 7.06083 15.4653 6.9232 15.2649 6.56211L15.2649 6.56211C15.1145 6.29107 14.8879 6.03435 14.5885 5.79947C14.5884 5.79937 14.5882 5.79927 14.5881 5.79917L10.1684 2.39331L6.95001 1.27858ZM6.95001 1.27858L2.52599 4.68741C2.52595 4.68744 2.52591 4.68747 2.52586 4.6875C1.53376 5.44839 0.961347 6.56178 0.961347 7.74309V14.4477C0.961347 15.7675 2.15084 16.8201 3.5885 16.8201H5.41708C5.84628 16.8201 6.21566 16.5045 6.21566 16.091C6.21566 15.6774 5.84628 15.3619 5.41708 15.3619H3.5885C3.00925 15.3619 2.55852 14.9404 2.55852 14.4477V7.74309C2.55852 6.9977 2.91863 6.29041 3.55566 5.80243L3.5559 5.80224M6.95001 1.27858L3.5559 5.80224M3.5559 5.80224L7.98104 2.39326C8.58674 1.92669 9.56238 1.92736 10.1683 2.39324L3.5559 5.80224ZM16.9485 8.17678C16.6377 7.89748 16.1384 7.89748 15.8276 8.17678L7.599 15.5715C7.28122 15.8571 7.28122 16.3256 7.599 16.6112C7.755 16.7514 7.95813 16.8209 8.15902 16.8209C8.35952 16.8209 8.56287 16.7524 8.7192 16.6111C8.71924 16.611 8.71928 16.611 8.71932 16.6109L16.9476 9.21644C17.2652 8.93107 17.2666 8.46258 16.9485 8.17678ZM11.7014 9.92866C11.7014 8.83559 10.7157 7.9671 9.53136 7.9671C8.34699 7.9671 7.36135 8.83559 7.36135 9.92866C7.36135 11.0217 8.34699 11.8902 9.53136 11.8902C10.7157 11.8902 11.7014 11.0217 11.7014 9.92866ZM8.95852 9.92866C8.95852 9.66197 9.20435 9.4253 9.53136 9.4253C9.85837 9.4253 10.1042 9.66197 10.1042 9.92866C10.1042 10.1953 9.85837 10.432 9.53136 10.432C9.20435 10.432 8.95852 10.1953 8.95852 9.92866ZM15.0171 16.8201C16.2014 16.8201 17.1871 15.9516 17.1871 14.8585C17.1871 13.7654 16.2014 12.8969 15.0171 12.8969C13.8327 12.8969 12.8471 13.7654 12.8471 14.8585C12.8471 15.9516 13.8327 16.8201 15.0171 16.8201ZM14.4442 14.8585C14.4442 14.5918 14.6901 14.3551 15.0171 14.3551C15.3441 14.3551 15.5899 14.5918 15.5899 14.8585C15.5899 15.1252 15.3441 15.3619 15.0171 15.3619C14.6901 15.3619 14.4442 15.1252 14.4442 14.8585Z" fill="#808080" stroke="#808080" stroke-width="0.225743"/>
</svg>
